<svg width="116" height="44" viewBox="0 0 116 44" fill="none" xmlns="http://www.w3.org/2000/svg">
<path d="M24.2026 21.7388C24.2026 23.5112 23.8511 25.0859 23.1479 26.4629C22.4595 27.8252 21.5366 28.9824 20.3794 29.9346C19.2368 30.8721 17.9111 31.5825 16.4023 32.0659C14.8936 32.564 13.3262 32.813 11.7002 32.813C10.0889 32.813 8.60205 32.5347 7.23975 31.978C5.89209 31.4214 4.72754 30.6523 3.74609 29.6709C2.76465 28.6748 1.99561 27.5029 1.43896 26.1553C0.896973 24.793 0.625977 23.3062 0.625977 21.6948C0.625977 20.1128 0.948242 18.6333 1.59277 17.2563C2.25195 15.8794 3.12354 14.6782 4.20752 13.6528C5.30615 12.6128 6.56592 11.7998 7.98682 11.2139C9.40771 10.6133 10.8945 10.313 12.4473 10.313C14.1318 10.313 15.6919 10.5913 17.1274 11.1479C18.563 11.7046 19.8008 12.4883 20.8408 13.499C21.8955 14.5098 22.7158 15.7183 23.3018 17.1245C23.9023 18.5161 24.2026 20.0542 24.2026 21.7388ZM18.6655 21.519C18.6655 20.8599 18.6216 20.1787 18.5337 19.4756C18.4458 18.7578 18.2993 18.062 18.0942 17.3882C17.9038 16.6997 17.6475 16.0552 17.3252 15.4546C17.0176 14.8394 16.6294 14.3047 16.1606 13.8506C15.6919 13.3818 15.1426 13.0156 14.5127 12.752C13.8828 12.4736 13.165 12.3345 12.3594 12.3345C11.1289 12.3345 10.1108 12.6348 9.30518 13.2354C8.49951 13.8213 7.8623 14.5757 7.39355 15.4985C6.93945 16.4067 6.61719 17.4102 6.42676 18.5088C6.25098 19.6074 6.16309 20.6548 6.16309 21.6509C6.16309 22.3101 6.19971 22.9985 6.27295 23.7163C6.36084 24.4194 6.5 25.1152 6.69043 25.8037C6.88086 26.4922 7.12988 27.1514 7.4375 27.7812C7.74512 28.3965 8.12598 28.9458 8.58008 29.4292C9.04883 29.8979 9.59082 30.2715 10.2061 30.5498C10.8359 30.8281 11.5537 30.9673 12.3594 30.9673C13.1797 30.9673 13.9048 30.8281 14.5347 30.5498C15.1646 30.2568 15.7065 29.876 16.1606 29.4072C16.6294 28.9238 17.0249 28.3672 17.3472 27.7373C17.6694 27.0928 17.9258 26.4263 18.1162 25.7378C18.3066 25.0347 18.4458 24.3242 18.5337 23.6064C18.6216 22.874 18.6655 22.1782 18.6655 21.519ZM45.0547 17.9595C45.0547 17.4028 44.8862 16.8682 44.5493 16.3555C44.2271 15.8281 43.8096 15.3667 43.2969 14.9712C42.7842 14.5757 42.2129 14.2607 41.583 14.0264C40.9531 13.792 40.3452 13.6748 39.7593 13.6748C38.5581 13.6748 37.5254 13.9385 36.6611 14.4658C35.7969 14.9932 35.0864 15.6816 34.5298 16.5312C33.9878 17.3662 33.585 18.311 33.3213 19.3657C33.0576 20.4058 32.9258 21.4531 32.9258 22.5078C32.9258 23.46 33.021 24.4414 33.2114 25.4521C33.4165 26.4482 33.7461 27.3638 34.2002 28.1987C34.6689 29.0337 35.2842 29.7222 36.0459 30.2642C36.8076 30.7915 37.7598 31.0552 38.9023 31.0552C39.7959 31.0552 40.5723 30.8574 41.2314 30.4619C41.9053 30.0664 42.4766 29.561 42.9453 28.9458C43.4287 28.3159 43.8242 27.6128 44.1318 26.8364C44.4395 26.0454 44.6738 25.2617 44.835 24.4854C44.8789 23.4014 44.9229 22.3101 44.9668 21.2114C45.0254 20.0981 45.0547 19.0142 45.0547 17.9595ZM50.2402 1.04053L49.3833 32.9009L45.3403 32.769L45.1646 28.8579C44.8716 29.561 44.4834 30.1909 44 30.7476C43.5312 31.2896 42.9819 31.7437 42.3521 32.1099C41.7368 32.4907 41.0557 32.7764 40.3086 32.9668C39.5762 33.1572 38.8071 33.2524 38.0015 33.2524C36.4341 33.2524 35.0059 32.9888 33.7168 32.4614C32.4277 31.9341 31.3218 31.2017 30.3989 30.2642C29.4907 29.3267 28.7803 28.2061 28.2676 26.9023C27.7695 25.5986 27.5205 24.1777 27.5205 22.6396C27.5205 20.9697 27.7915 19.439 28.3335 18.0474C28.8901 16.6411 29.6592 15.4399 30.6406 14.4438C31.6367 13.4331 32.8306 12.6641 34.2222 12.1367C35.6138 11.5947 37.1445 11.3457 38.8145 11.3896C39.3125 11.4043 39.8179 11.4556 40.3306 11.5435C40.8579 11.6167 41.3706 11.7339 41.8687 11.895C42.3667 12.0562 42.8428 12.2612 43.2969 12.5103C43.7656 12.7593 44.1904 13.0596 44.5713 13.4111L44.1099 0.73291L50.2402 1.04053ZM62.1934 6.07227C62.1934 6.59961 62.0908 7.09766 61.8857 7.56641C61.6953 8.03516 61.4243 8.44531 61.0728 8.79688C60.7212 9.14844 60.311 9.42676 59.8423 9.63184C59.3735 9.83691 58.8682 9.93945 58.3262 9.93945C57.7842 9.93945 57.2715 9.83691 56.7881 9.63184C56.3193 9.42676 55.9092 9.14844 55.5576 8.79688C55.2061 8.44531 54.9277 8.03516 54.7227 7.56641C54.5176 7.09766 54.415 6.59961 54.415 6.07227C54.415 5.53027 54.5176 5.0249 54.7227 4.55615C54.9277 4.07275 55.2061 3.65527 55.5576 3.30371C55.9092 2.95215 56.3193 2.67383 56.7881 2.46875C57.2715 2.26367 57.7842 2.16113 58.3262 2.16113C58.8682 2.16113 59.3735 2.26367 59.8423 2.46875C60.311 2.67383 60.7212 2.95215 61.0728 3.30371C61.4243 3.65527 61.6953 4.07275 61.8857 4.55615C62.0908 5.0249 62.1934 5.53027 62.1934 6.07227ZM61.4463 12.1587L59.7764 33.2964L55.5356 32.8569L55.272 11.8291L61.4463 12.1587ZM77.4204 30.4619C78.5337 30.4619 79.4858 30.2568 80.2769 29.8467C81.0679 29.4365 81.7051 28.8945 82.1885 28.2207C82.6865 27.5322 83.0381 26.7485 83.2432 25.8696C83.4482 24.9761 83.5288 24.0459 83.4849 23.0791L83.2212 18.0913C83.2212 17.4614 83.0527 16.8462 82.7158 16.2456C82.3789 15.645 81.9468 15.1104 81.4194 14.6416C80.8921 14.1582 80.2988 13.7773 79.6396 13.499C78.9805 13.2061 78.3286 13.0596 77.6841 13.0596C76.5122 13.0596 75.4868 13.3013 74.6079 13.7847C73.729 14.2681 72.9966 14.9053 72.4106 15.6963C71.8394 16.4727 71.4072 17.3662 71.1143 18.377C70.8213 19.373 70.6748 20.3911 70.6748 21.4312C70.6748 22.4419 70.7993 23.4819 71.0483 24.5513C71.312 25.6206 71.7148 26.5947 72.2568 27.4736C72.7988 28.3379 73.4946 29.0557 74.3442 29.627C75.2085 30.1836 76.2339 30.4619 77.4204 30.4619ZM75.2012 43.1621C73.9268 43.1621 72.8428 42.9131 71.9492 42.415C71.0703 41.9316 70.3306 41.2871 69.73 40.4814C69.1294 39.6758 68.6606 38.7529 68.3237 37.7129C67.9868 36.6729 67.7305 35.5962 67.5547 34.4829L73.5972 34.0654C73.5239 34.4756 73.4653 34.8784 73.4214 35.2739C73.3921 35.6841 73.3774 36.0942 73.3774 36.5044C73.3774 37.0903 73.436 37.6836 73.5532 38.2842C73.6704 38.8848 73.8682 39.4268 74.1465 39.9102C74.4395 40.4082 74.813 40.811 75.2671 41.1187C75.7358 41.4263 76.3145 41.5801 77.0029 41.5801C77.7354 41.5801 78.3799 41.3823 78.9365 40.9868C79.4932 40.5913 79.9766 40.0713 80.3867 39.4268C80.7969 38.7822 81.1338 38.0425 81.3975 37.2075C81.6758 36.3726 81.9028 35.5156 82.0786 34.6367C82.2544 33.7578 82.3862 32.8862 82.4741 32.022C82.562 31.1724 82.6279 30.4033 82.6719 29.7148C81.749 30.6816 80.6724 31.4287 79.4419 31.9561C78.2261 32.4688 76.8638 32.7251 75.355 32.7251C73.8462 32.7251 72.4619 32.4248 71.2021 31.8242C69.957 31.209 68.8877 30.396 67.9941 29.3853C67.1006 28.3599 66.4048 27.1807 65.9067 25.8477C65.4233 24.5146 65.1816 23.1304 65.1816 21.6948C65.1816 20.2739 65.4233 18.9116 65.9067 17.6079C66.3901 16.3042 67.0713 15.1543 67.9502 14.1582C68.8291 13.1475 69.8765 12.3418 71.0923 11.7412C72.3228 11.1406 73.6777 10.8403 75.1572 10.8403C75.7285 10.8403 76.3145 10.8843 76.915 10.9722C77.5303 11.0601 78.1235 11.1992 78.6948 11.3896C79.2808 11.5654 79.8447 11.7925 80.3867 12.0708C80.9287 12.3491 81.4268 12.6787 81.8809 13.0596L81.6831 10.9502L87.2202 10.4448C87.3813 12.3052 87.4985 14.1509 87.5718 15.9819C87.645 17.813 87.6816 19.644 87.6816 21.4751C87.6816 22.5591 87.667 23.7017 87.6377 24.9028C87.6084 26.0894 87.5278 27.2905 87.396 28.5063C87.2788 29.7222 87.103 30.9307 86.8687 32.1318C86.6343 33.333 86.312 34.4756 85.9019 35.5596C85.4917 36.6436 84.979 37.647 84.3638 38.5698C83.7632 39.5073 83.0308 40.313 82.1665 40.9868C81.3022 41.6606 80.2915 42.188 79.1343 42.5688C77.9917 42.9644 76.6807 43.1621 75.2012 43.1621ZM115.565 21.7388C115.565 23.5112 115.213 25.0859 114.51 26.4629C113.822 27.8252 112.899 28.9824 111.742 29.9346C110.599 30.8721 109.273 31.5825 107.765 32.0659C106.256 32.564 104.688 32.813 103.062 32.813C101.451 32.813 99.9644 32.5347 98.6021 31.978C97.2544 31.4214 96.0898 30.6523 95.1084 29.6709C94.127 28.6748 93.3579 27.5029 92.8013 26.1553C92.2593 24.793 91.9883 23.3062 91.9883 21.6948C91.9883 20.1128 92.3105 18.6333 92.9551 17.2563C93.6143 15.8794 94.4858 14.6782 95.5698 13.6528C96.6685 12.6128 97.9282 11.7998 99.3491 11.2139C100.77 10.6133 102.257 10.313 103.81 10.313C105.494 10.313 107.054 10.5913 108.49 11.1479C109.925 11.7046 111.163 12.4883 112.203 13.499C113.258 14.5098 114.078 15.7183 114.664 17.1245C115.265 18.5161 115.565 20.0542 115.565 21.7388ZM110.028 21.519C110.028 20.8599 109.984 20.1787 109.896 19.4756C109.808 18.7578 109.662 18.062 109.457 17.3882C109.266 16.6997 109.01 16.0552 108.688 15.4546C108.38 14.8394 107.992 14.3047 107.523 13.8506C107.054 13.3818 106.505 13.0156 105.875 12.752C105.245 12.4736 104.527 12.3345 103.722 12.3345C102.491 12.3345 101.473 12.6348 100.667 13.2354C99.8618 13.8213 99.2246 14.5757 98.7559 15.4985C98.3018 16.4067 97.9795 17.4102 97.7891 18.5088C97.6133 19.6074 97.5254 20.6548 97.5254 21.6509C97.5254 22.3101 97.562 22.9985 97.6353 23.7163C97.7231 24.4194 97.8623 25.1152 98.0527 25.8037C98.2432 26.4922 98.4922 27.1514 98.7998 27.7812C99.1074 28.3965 99.4883 28.9458 99.9424 29.4292C100.411 29.8979 100.953 30.2715 101.568 30.5498C102.198 30.8281 102.916 30.9673 103.722 30.9673C104.542 30.9673 105.267 30.8281 105.897 30.5498C106.527 30.2568 107.069 29.876 107.523 29.4072C107.992 28.9238 108.387 28.3672 108.709 27.7373C109.032 27.0928 109.288 26.4263 109.479 25.7378C109.669 25.0347 109.808 24.3242 109.896 23.6064C109.984 22.874 110.028 22.1782 110.028 21.519Z" fill="white"/>
</svg>
